<?xml version="1.0" encoding="UTF-8" standalone="no"?><!DOCTYPE svg PUBLIC "-//W3C//DTD SVG 1.1//EN"
        "http://www.w3.org/Graphics/SVG/1.1/DTD/svg11.dtd">
<svg width="100%" height="100%" viewBox="0 0 4500 4500" version="1.1" xmlns="http://www.w3.org/2000/svg"
     xmlns:xlink="http://www.w3.org/1999/xlink" xml:space="preserve" xmlns:serif="http://www.serif.com/"
     style="fill-rule:evenodd;clip-rule:evenodd;stroke-linejoin:round;stroke-miterlimit:2;"><rect id="Page-2" serif:id="Page 2" x="0" y="0" width="4500" height="4500" style="fill:none;"/>
    <g id="Logo"><path d="M218.26,3233.133l-195.972,306.971l846.344,0l0,-1430.968l306.971,-177.238l0,1608.205l920.914,0l0,-2139.918l153.486,-88.655l153.486,88.583l0,2139.99l920.914,0l0,-1608.205l306.971,177.165l0,1431.04l846.337,0l-197.077,-306.971l-342.289,0l0,-1301.234l-920.914,-531.713l0,1832.947l-306.971,0l0,-2010.185l-153.493,-88.655l-306.964,-177.165l-306.971,177.165l-153.486,88.655l0,2010.185l-306.971,0l0,-1832.947l-920.914,531.713l0,1301.234l-343.401,0Z" style="fill:#f4b342;fill-rule:nonzero;"/></g></svg>